# File created by Blade
# Date/Time:  Tue Apr 07 21:12:38 2015
# Frame Rate: 120.000 fps
#------------------------------------------------------
:FULLY-SPECIFIED
:DEGREES
457
root 27.888053 15.247367 6.556874 338.718068 -63.501779 -305.789303
Spine 63.679219 -11.425766 -1.997286
Head -35.187704 -16.971103 10.873053
LeftShoulder -2.018060 16.748110 37.932302
LeftArm 113.016734 -22.834109 -69.547991
LeftForeArm 1.616838 -0.000000 26.084393
LeftHand 23.348660 0.000000 59.485784
LeftHandThumb1 -26.253704 0.000000 33.147579
RightShoulder 7.877422 27.071735 -27.902629
RightArm 46.078486 35.530043 89.120194
RightForeArm -27.700257 -0.000000 96.129894
RightHand 5.944529 -0.000000 -10.521809
RightHandThumb1 -24.326973 -0.000000 -32.862282
LeftUpLeg -80.381925 -0.563005 -22.972993
LeftLeg 138.171867 -0.000000 -0.000000
LeftFoot -26.548507 -13.934614 3.429583
LeftToeBase -78.021297 -0.000000 0.000000
RightUpLeg -65.263191 -10.818367 -13.410313
RightLeg 144.238496 -0.000000 -0.000000
RightFoot -22.797918 -14.002744 5.196853
RightToeBase -92.798961 -0.000000 0.000000
458
root 27.910198 15.164690 6.540712 338.237807 -63.064025 -305.256887
Spine 63.623061 -11.490443 -1.774264
Head -35.523153 -17.370604 10.750621
LeftShoulder -2.044926 16.457950 37.743356
LeftArm 112.976769 -22.536432 -69.613594
LeftForeArm 1.783505 -0.000000 26.771656
LeftHand 23.164041 -0.000000 59.161725
LeftHandThumb1 -26.253704 0.000000 33.147579
RightShoulder 8.045427 27.450343 -28.116669
RightArm 46.726566 36.562989 89.207022
RightForeArm -28.209077 0.000000 96.206967
RightHand 5.038505 -0.000000 -9.134494
RightHandThumb1 -24.326973 -0.000000 -32.862282
LeftUpLeg -80.446526 -0.490400 -23.333025
LeftLeg 138.401232 -0.000000 -0.000000
LeftFoot -26.569779 -14.338761 3.585599
LeftToeBase -78.194278 -0.000000 0.000000
RightUpLeg -65.252622 -11.141134 -13.677641
RightLeg 144.627636 -0.000000 -0.000000
RightFoot -22.889456 -14.235685 5.247830
RightToeBase -93.388900 -0.000000 0.000000
459
root 27.932409 15.081513 6.518157 337.886774 -62.626398 -304.820189
Spine 63.525465 -11.557803 -1.488856
Head -35.871916 -17.834968 10.681280
LeftShoulder -2.071015 16.192386 37.546004
LeftArm 112.996877 -22.212866 -69.732512
LeftForeArm 2.002549 -0.000000 27.431720
LeftHand 23.057055 -0.000000 58.821429
LeftHandThumb1 -26.253704 0.000000 33.147579
RightShoulder 8.194009 27.788331 -28.349147
RightArm 47.448016 37.636425 89.390394
RightForeArm -28.963532 -0.000000 96.308552
RightHand 4.112758 -0.000000 -7.422118
RightHandThumb1 -24.326973 -0.000000 -32.862282
LeftUpLeg -80.558003 -0.424821 -23.639048
LeftLeg 138.629354 -0.000000 -0.000000
LeftFoot -26.582626 -14.730124 3.811585
LeftToeBase -78.578407 -0.000000 0.000000
RightUpLeg -65.305016 -11.408946 -13.882705
RightLeg 145.015038 -0.000000 -0.000000
RightFoot -22.910426 -14.451400 5.374690
RightToeBase -94.059527 -0.000000 0.000000
460
root 27.950106 15.002015 6.493920 337.490044 -62.180490 -304.355420
Spine 63.478765 -11.607568 -1.237546
Head -36.236135 -18.217222 10.625980
LeftShoulder -2.098425 15.980535 37.398255
LeftArm 113.042094 -21.862055 -69.980004
LeftForeArm 2.296505 -0.000000 28.223755
LeftHand 22.872225 -0.000000 58.463687
LeftHandThumb1 -26.253704 0.000000 33.147579
RightShoulder 8.343991 28.131493 -28.572576
RightArm 48.040241 38.649807 89.420272
RightForeArm -29.523085 0.000000 96.378875
RightHand 3.182312 -0.000000 -6.098106
RightHandThumb1 -24.326973 -0.000000 -32.862282
LeftUpLeg -80.621582 -0.344008 -23.929425
LeftLeg 138.828600 -0.000000 -0.000000
LeftFoot -26.615714 -15.211336 3.999030
LeftToeBase -78.713032 -0.000000 0.000000
RightUpLeg -65.305128 -11.667205 -14.106722
RightLeg 145.389065 -0.000000 -0.000000
RightFoot -22.973004 -14.648925 5.484271
RightToeBase -94.638865 -0.000000 0.000000
461
root 27.966817 14.921754 6.465231 337.200172 -61.733243 -303.970526
Spine 63.390790 -11.682010 -0.901580
Head -36.605090 -18.682699 10.482045
LeftShoulder -2.107489 15.615304 37.228889
LeftArm 112.900775 -21.451199 -70.192882
LeftForeArm 2.599606 -0.000000 29.090646
LeftHand 22.688496 -0.000000 58.006238
LeftHandThumb1 -26.253704 0.000000 33.147579
RightShoulder 8.439591 28.448878 -28.856876
RightArm 48.676089 39.565614 89.574764
RightForeArm -29.989005 -0.000000 96.382738
RightHand 2.629492 -0.000000 -5.112019
RightHandThumb1 -24.326973 -0.000000 -32.862282
LeftUpLeg -80.753371 -0.331263 -24.157920
LeftLeg 139.038688 -0.000000 -0.000000
LeftFoot -26.564859 -15.692645 4.090418
LeftToeBase -79.190947 -0.000000 0.000000
RightUpLeg -65.350672 -11.943921 -14.258614
RightLeg 145.759936 -0.000000 -0.000000
RightFoot -22.991429 -14.893694 5.562819
RightToeBase -95.279499 -0.000000 0.000000
